<?xml version="1.0" encoding="UTF-8"?>
<svg version="1.1" xmlns="http://www.w3.org/2000/svg" width="150" height="150">
<path d="M0 0 C3.4627437 0.51299907 6.75957562 0.7124943 10.24755859 0.81054688 C17.47642774 1.03117363 22.28148152 1.81702185 27.796875 6.5625 C28.725 7.2225 29.653125 7.8825 30.609375 8.5625 C32.95821821 10.71001379 34.16829784 12.84820474 35.796875 15.5625 C36.55742188 16.15933594 37.31796875 16.75617187 38.1015625 17.37109375 C46.03532765 23.82158976 51.40381043 32.42408562 52.796875 42.5625 C52.9782877 45.28800978 52.95166017 47.82796202 52.796875 50.5625 C40.13959475 58.04829554 27.05676346 57.86989879 12.796875 57.5625 C12.80734863 58.22668945 12.81782227 58.89087891 12.82861328 59.57519531 C13.16232257 83.93174918 13.16232257 83.93174918 10.796875 93.5625 C20.55381587 94.73076517 20.55381587 94.73076517 29.53515625 91.81640625 C31.62275586 89.68484477 31.62275586 89.68484477 33.31640625 87.41015625 C34.796875 85.5625 34.796875 85.5625 37.796875 84.5625 C39.57001351 84.48040208 41.34608275 84.45503706 43.12109375 84.46484375 C44.04752686 84.46734131 44.97395996 84.46983887 45.9284668 84.47241211 C47.1019165 84.48151611 48.27536621 84.49062012 49.484375 84.5 C55.0840625 84.5309375 55.0840625 84.5309375 60.796875 84.5625 C60.796875 97.4325 60.796875 110.3025 60.796875 123.5625 C11.296875 123.5625 -38.203125 123.5625 -89.203125 123.5625 C-89.203125 111.0225 -89.203125 98.4825 -89.203125 85.5625 C-69.26835183 84.6067232 -69.26835183 84.6067232 -58.546875 90.9375 C-52.95037902 93.65729244 -47.38521017 93.62826686 -41.203125 93.5625 C-41.698125 92.20125 -41.698125 92.20125 -42.203125 90.8125 C-45.27227055 79.84193719 -42.86260711 66.82080167 -42.203125 55.5625 C-43.46125 55.624375 -44.719375 55.68625 -46.015625 55.75 C-56.93611265 55.71884312 -72.54139164 54.94798762 -81.203125 47.5625 C-82.37418091 44.67944358 -82.20831133 42.3511864 -81.765625 39.3125 C-81.3466771 36.23853291 -81.23366594 33.46522086 -81.453125 30.375 C-81.203125 26.5625 -81.203125 26.5625 -79.203125 23.1875 C-75.93797232 20.3304914 -74.19626683 19.87417718 -70.1015625 19.10546875 C-67.01835127 18.22364496 -65.38406376 15.84729299 -63.203125 13.5625 C-60.72338343 11.97345818 -58.18505672 10.51611945 -55.6328125 9.046875 C-53.52286286 7.75783824 -51.7395976 6.44112872 -49.890625 4.8125 C-43.60943765 -0.44616848 -36.31250689 -0.15638683 -28.453125 -0.6875 C-26.49209839 -0.82152222 -26.49209839 -0.82152222 -24.49145508 -0.95825195 C-16.08852174 -1.45542074 -8.2951905 -1.33256072 0 0 Z " fill="#402C19" transform="translate(89.203125,26.4375)"/>
<path d="M0 0 C3.4627437 0.51299907 6.75957562 0.7124943 10.24755859 0.81054688 C17.47642775 1.03117363 22.28148152 1.81702185 27.796875 6.5625 C28.725 7.2225 29.653125 7.8825 30.609375 8.5625 C32.95821821 10.71001379 34.16829784 12.84820474 35.796875 15.5625 C36.55742188 16.15933594 37.31796875 16.75617187 38.1015625 17.37109375 C46.03532765 23.82158976 51.40381043 32.42408562 52.796875 42.5625 C52.9782877 45.28800978 52.95166017 47.82796202 52.796875 50.5625 C37.41361783 59.6604986 19.79770393 58.04728725 2.5859375 57.07421875 C-4.6475626 56.68872601 -11.87039417 56.45516394 -19.11328125 56.3515625 C-20.02841995 56.337267 -20.94355865 56.3229715 -21.88642883 56.3082428 C-25.61410108 56.25124875 -29.34162896 56.19618886 -33.06958008 56.16113281 C-43.04196797 56.06025229 -52.82443078 55.71493997 -62.69140625 54.17578125 C-63.84685692 53.99573044 -63.84685692 53.99573044 -65.02565002 53.81204224 C-70.75379156 52.8273119 -76.68484781 51.41504069 -81.203125 47.5625 C-82.37418091 44.67944358 -82.20831133 42.3511864 -81.765625 39.3125 C-81.3466771 36.23853291 -81.23366594 33.46522086 -81.453125 30.375 C-81.203125 26.5625 -81.203125 26.5625 -79.203125 23.1875 C-75.93797232 20.3304914 -74.19626683 19.87417718 -70.1015625 19.10546875 C-67.01835127 18.22364496 -65.38406376 15.84729299 -63.203125 13.5625 C-60.72338343 11.97345818 -58.18505672 10.51611945 -55.6328125 9.046875 C-53.52286286 7.75783824 -51.7395976 6.44112872 -49.890625 4.8125 C-43.60943765 -0.44616848 -36.31250689 -0.15638683 -28.453125 -0.6875 C-26.49209839 -0.82152222 -26.49209839 -0.82152222 -24.49145508 -0.95825195 C-16.08852174 -1.45542074 -8.2951905 -1.33256072 0 0 Z " fill="#B91414" transform="translate(89.203125,26.4375)"/>
<path d="M0 0 C33.5438715 -0.18985995 33.5438715 -0.18985995 46.0625 0.4375 C47.28114746 0.49635376 47.28114746 0.49635376 48.52441406 0.55639648 C53.8654455 0.8654455 53.8654455 0.8654455 55 2 C55.25710741 5.76327468 55.189734 9.54150554 55.1875 13.3125 C55.18814453 14.40433594 55.18878906 15.49617188 55.18945312 16.62109375 C55.14139423 23.94352184 54.7528354 30.86345589 53 38 C51.54293274 38.50367757 50.08429904 39.00282556 48.625 39.5 C47.81289062 39.7784375 47.00078125 40.056875 46.1640625 40.34375 C44 41 44 41 42 41 C42 41.66 42 42.32 42 43 C32.47624983 46.4042341 24.96012323 47.30499327 15.44921875 43.66796875 C10.73239592 42.38156252 5.84674317 42.77857519 1 43 C1 42.34 1 41.68 1 41 C-0.98 41 -2.96 41 -5 41 C-4.67 40.01 -4.34 39.02 -4 38 C-2.35 38 -0.7 38 1 38 C0.67 37.0925 0.34 36.185 0 35.25 C-3.06914555 24.27943719 -0.65948211 11.25830167 0 0 Z " fill="#BBB9B9" transform="translate(47,82)"/>
<path d="M0 0 C0.92643311 0.00249756 1.85286621 0.00499512 2.80737305 0.00756836 C3.98082275 0.01667236 5.15427246 0.02577637 6.36328125 0.03515625 C11.96296875 0.06609375 11.96296875 0.06609375 17.67578125 0.09765625 C17.67578125 12.96765625 17.67578125 25.83765625 17.67578125 39.09765625 C4.14578125 39.09765625 -9.38421875 39.09765625 -23.32421875 39.09765625 C-23.76171875 26.28515625 -23.76171875 26.28515625 -23.89233398 22.25463867 C-23.93044189 21.20638916 -23.9685498 20.15813965 -24.0078125 19.078125 C-24.04447021 18.00457764 -24.08112793 16.93103027 -24.11889648 15.82495117 C-24.21963722 13.00454072 -24.21963722 13.00454072 -25.32421875 10.09765625 C-24.00421875 10.09765625 -22.68421875 10.09765625 -21.32421875 10.09765625 C-15.89823143 9.54992251 -13.51857402 6.90596685 -10.05078125 2.91015625 C-7.07429012 -0.21448602 -4.08187735 -0.02255181 0 0 Z " fill="#FDFDFD" transform="translate(132.32421875,110.90234375)"/>
<path d="M0 0 C20.59819413 -0.98758465 20.59819413 -0.98758465 31.0546875 5.37109375 C34.12253296 7.0677669 36.53723811 7.63305061 40 8 C39.67 8.99 39.34 9.98 39 11 C38.78391654 12.91669758 38.6112858 14.83844643 38.46484375 16.76171875 C38.37783203 17.87998047 38.29082031 18.99824219 38.20117188 20.15039062 C38.11416016 21.31763672 38.02714844 22.48488281 37.9375 23.6875 C37.84662109 24.86634766 37.75574219 26.04519531 37.66210938 27.25976562 C37.4380194 30.17293532 37.21745704 33.0863289 37 36 C37.92039063 35.50886719 38.84078125 35.01773438 39.7890625 34.51171875 C43.19596127 32.90774086 45.29119044 32.73508503 49 33 C49.66 34.65 50.32 36.3 51 38 C34.17 38 17.34 38 0 38 C0 25.46 0 12.92 0 0 Z " fill="#A9A9A8" transform="translate(0,112)"/>
<path d="M0 0 C0.33 0.99 0.66 1.98 1 3 C2.65 2.67 4.3 2.34 6 2 C7.20152572 5.9333595 8.38379219 9.87224819 9.5625 13.8125 C10.07586914 15.49182617 10.07586914 15.49182617 10.59960938 17.20507812 C11.07817383 18.81479492 11.07817383 18.81479492 11.56640625 20.45703125 C11.86490479 21.44678955 12.16340332 22.43654785 12.47094727 23.45629883 C13 26 13 26 12 29 C11.16094435 27.87926138 10.32892169 26.75325453 9.5 25.625 C9.0359375 24.99851563 8.571875 24.37203125 8.09375 23.7265625 C7 22 7 22 7 20 C3.37 20.66 -0.26 21.32 -4 22 C-3.65484703 27.52244745 -2.16989613 30.83284364 0.94140625 35.3984375 C2 37 2 37 2 38 C-3.61 38 -9.22 38 -15 38 C-15.06058594 36.15792969 -15.12117188 34.31585938 -15.18359375 32.41796875 C-15.26799639 30.00780434 -15.35264453 27.59764851 -15.4375 25.1875 C-15.47681641 23.97255859 -15.51613281 22.75761719 -15.55664062 21.50585938 C-15.59853516 20.34248047 -15.64042969 19.17910156 -15.68359375 17.98046875 C-15.72025146 16.90692139 -15.75690918 15.83337402 -15.79467773 14.72729492 C-15.89541847 11.90688447 -15.89541847 11.90688447 -17 9 C-15.68 9 -14.36 9 -13 9 C-6.84411203 8.38538678 -3.80206497 4.54797417 0 0 Z " fill="#BCBCBC" transform="translate(124,112)"/>
<path d="M0 0 C0.99 0 1.98 0 3 0 C3 0.66 3 1.32 3 2 C4.65 2.33 6.3 2.66 8 3 C8 3.66 8 4.32 8 5 C9.19625 4.835 10.3925 4.67 11.625 4.5 C15.10229939 4.0203725 18.49076901 3.95977959 22 4 C22.02899599 7.77081722 22.04679729 11.54160583 22.0625 15.3125 C22.07087891 16.38435547 22.07925781 17.45621094 22.08789062 18.56054688 C22.09272461 20.10258789 22.09272461 20.10258789 22.09765625 21.67578125 C22.10551147 23.0975769 22.10551147 23.0975769 22.11352539 24.5480957 C22 27 22 27 21 30 C17.7 30 14.4 30 11 30 C10.34 28.68 9.68 27.36 9 26 C4.50448168 25.7859277 1.21995996 26.49878175 -3 28 C-2.8903028 23.89527342 -2.75963024 19.79147852 -2.625 15.6875 C-2.5940625 14.52025391 -2.563125 13.35300781 -2.53125 12.15039062 C-2.49257813 11.03212891 -2.45390625 9.91386719 -2.4140625 8.76171875 C-2.3826416 7.73006592 -2.3512207 6.69841309 -2.31884766 5.63549805 C-2 3 -2 3 0 0 Z " fill="#98291F" transform="translate(40,120)"/>
<path d="M0 0 C3.44637813 2.55031982 4.75140241 3.80673158 5.625 8 C4.7575339 12.1638373 3.42232495 13.48563882 0 16 C-9.38811635 19.3307104 -18.05922374 18.15107469 -27 14 C-29.41532037 12.01443258 -29.88449511 11.0366522 -31 8 C-30.43114265 4.58685593 -29.24729129 3.24729129 -26.8125 0.8125 C-18.27917122 -4.68675632 -9.0065206 -3.80342931 0 0 Z " fill="#CFC6C7" transform="translate(88,57)"/>
<path d="M0 0 C4.62 0 9.24 0 14 0 C13.363157 9.17053917 11.79513145 18.00176248 10 27 C11.65 24.36 13.3 21.72 15 19 C17.64 19.66 20.28 20.32 23 21 C22.3125 23.5 22.3125 23.5 21 27 C20.77441406 27.71929687 20.54882812 28.43859375 20.31640625 29.1796875 C19.375 31.375 19.375 31.375 16 35 C10.72 35 5.44 35 0 35 C0 23.45 0 11.9 0 0 Z " fill="#A1A1A1" transform="translate(0,115)"/>
<path d="M0 0 C11.79515814 -0.74758045 20.78509393 -0.87392937 31.0546875 5.37109375 C34.12253296 7.0677669 36.53723811 7.63305061 40 8 C39.67 8.99 39.34 9.98 39 11 C35.7 11 32.4 11 29 11 C28.67 10.34 28.34 9.68 28 9 C26.69910169 11.60179663 26.83159922 13.5969188 26.8125 16.5 C26.79123047 17.96953125 26.79123047 17.96953125 26.76953125 19.46875 C26.74319966 22.169918 26.74319966 22.169918 29 24 C29 24.99 29 25.98 29 27 C27.68 27 26.36 27 25 27 C24.67 26.34 24.34 25.68 24 25 C21.88153715 24.31270746 21.88153715 24.31270746 19.4375 23.875 C17.2409375 23.441875 17.2409375 23.441875 15 23 C12.525 27.455 12.525 27.455 10 32 C8.80785117 28.42355352 9.26148636 26.6925682 9.99609375 23.01953125 C10.22490234 21.85615234 10.45371094 20.69277344 10.68945312 19.49414062 C10.93630859 18.27919922 11.18316406 17.06425781 11.4375 15.8125 C11.68048828 14.58595703 11.92347656 13.35941406 12.17382812 12.09570312 C12.77575852 9.06244603 13.38700445 6.03104029 14 3 C9.38 3 4.76 3 0 3 C0 2.01 0 1.02 0 0 Z " fill="#ECECEC" transform="translate(0,112)"/>
<path d="M0 0 C0.33 0 0.66 0 1 0 C1 6.93 1 13.86 1 21 C-7.91 21 -16.82 21 -26 21 C-25.67 17.7 -25.34 14.4 -25 11 C-21 8 -21 8 -18 8 C-17.67 8.66 -17.34 9.32 -17 10 C-16.01 10.33 -15.02 10.66 -14 11 C-13.731875 10.360625 -13.46375 9.72125 -13.1875 9.0625 C-12 7 -12 7 -9 6 C-9 6.99 -9 7.98 -9 9 C-4.54907632 6.77453816 -2.60403447 4.1850554 0 0 Z " fill="#81766D" transform="translate(108,129)"/>
<path d="M0 0 C2.18381539 3.27572308 2.48244584 4.20286745 2 8 C0.57421875 10.45703125 0.57421875 10.45703125 -1.3125 12.8125 C-1.92738281 13.60269531 -2.54226562 14.39289063 -3.17578125 15.20703125 C-5 17 -5 17 -8 17 C-8 16.01 -8 15.02 -8 14 C-8.7425 14.845625 -9.485 15.69125 -10.25 16.5625 C-13 19 -13 19 -15 19.1875 C-18.08534465 17.35557661 -20.24615345 15.09230839 -22 12 C-22.67741811 9.26578344 -22.85334226 6.83538306 -23 4 C-21.35 4 -19.7 4 -18 4 C-18 3.34 -18 2.68 -18 2 C-12.1658181 -0.07437579 -6.17534659 -0.95241664 0 0 Z " fill="#8F2016" transform="translate(107,121)"/>
<path d="M0 0 C3.3 0 6.6 0 10 0 C10.00257812 0.89460938 10.00515625 1.78921875 10.0078125 2.7109375 C10.28916606 11.50792536 11.92227921 16.87255705 17 24 C17 24.33 17 24.66 17 25 C11.39 25 5.78 25 0 25 C0 16.75 0 8.5 0 0 Z " fill="#B5B5B4" transform="translate(109,125)"/>
<path d="M0 0 C0.02701408 2.10409639 0.04640223 4.20829178 0.0625 6.3125 C0.07410156 7.48425781 0.08570312 8.65601563 0.09765625 9.86328125 C0 13 0 13 -1 16 C-4.3 16 -7.6 16 -11 16 C-11.66 14.68 -12.32 13.36 -13 12 C-17.46839215 11.78721942 -20.82262526 12.40861915 -25 14 C-25 11.03 -25 8.06 -25 5 C-24.67 6.32 -24.34 7.64 -24 9 C-23.34 9 -22.68 9 -22 9 C-22 8.34 -22 7.68 -22 7 C-19 5 -19 5 -15 5 C-15 4.01 -15 3.02 -15 2 C-13.68 2 -12.36 2 -11 2 C-11 2.66 -11 3.32 -11 4 C-7.22496936 3.46070991 -3.32019843 0 0 0 Z " fill="#705D50" transform="translate(62,134)"/>
<path d="M0 0 C0.88945313 0.00322266 1.77890625 0.00644531 2.6953125 0.00976562 C4.07589844 0.02233398 4.07589844 0.02233398 5.484375 0.03515625 C6.42023438 0.03966797 7.35609375 0.04417969 8.3203125 0.04882812 C10.62506541 0.06058707 12.92968727 0.07702199 15.234375 0.09765625 C15.26367481 3.93097324 15.28127397 7.76426096 15.296875 11.59765625 C15.30525391 12.6753125 15.31363281 13.75296875 15.32226562 14.86328125 C15.34009385 20.71094007 15.12543463 26.31629296 14.234375 32.09765625 C11.264375 32.59265625 11.264375 32.59265625 8.234375 33.09765625 C8.0166799 27.87297386 8.27179116 23.43225789 9.72265625 18.359375 C10.77924859 13.68939815 10.93236697 8.86620404 11.234375 4.09765625 C10.244375 4.59265625 10.244375 4.59265625 9.234375 5.09765625 C2.54755833 5.43766388 -3.03702625 4.91672208 -8.765625 1.09765625 C-5.76855805 0.22802538 -3.11605974 -0.01997474 0 0 Z " fill="#DDDDDD" transform="translate(86.765625,83.90234375)"/>
<path d="M0 0 C2.71109611 1.68527596 3.75515456 3.02597983 4.53515625 6.12890625 C5.15949773 10.48494392 5.27581743 13.11876097 3 17 C-0.07397881 17.35468986 -2.93573996 17.4896498 -6 17 C-8.84681102 14.35653263 -9.9230591 12.58392138 -10.11328125 8.66796875 C-9.94114283 6.3001092 -9.75289167 4.25416669 -9 2 C-5.50875983 -0.32749345 -4.10777749 -0.50299316 0 0 Z " fill="#D7D4D3" transform="translate(135,57)"/>
<path d="M0 0 C1 1 1 1 1.0546875 2.8203125 C0.60028892 8.64846826 -0.67549119 12.89353365 -5 17 C-7.5625 18.1875 -7.5625 18.1875 -10 18 C-12.3125 16.5625 -12.3125 16.5625 -14 14 C-14.9297184 7.59527326 -14.9297184 7.59527326 -12.94140625 4.18359375 C-8.64167242 -1.1113307 -6.52452109 -1.18627656 0 0 Z " fill="#C9C0C1" transform="translate(22,47)"/>
<path d="M0 0 C0.33 0.99 0.66 1.98 1 3 C6.445 3.495 6.445 3.495 12 4 C12 4.99 12 5.98 12 7 C13.32 7.33 14.64 7.66 16 8 C16 8.66 16 9.32 16 10 C16.66 10.33 17.32 10.66 18 11 C14.33012779 12.22329074 11.66032178 11.88021006 7.8125 11.5625 C6.54019531 11.46066406 5.26789062 11.35882813 3.95703125 11.25390625 C2.98121094 11.17011719 2.00539063 11.08632813 1 11 C0.72414063 10.19175781 0.44828125 9.38351563 0.1640625 8.55078125 C-0.22007813 7.70902344 -0.60421875 6.86726563 -1 6 C-3.54775306 5.10613836 -3.54775306 5.10613836 -6 5 C-6.33 6.32 -6.66 7.64 -7 9 C-10.34252724 9.07427838 -12.8035914 9.06546953 -16 8 C-14.82395315 4.47185944 -14.23613354 3.74253345 -11 2 C-9.0625 1.8828125 -9.0625 1.8828125 -6.9375 1.9375 C-2.94525226 2.37360515 -2.94525226 2.37360515 0 0 Z " fill="#C20A0B" transform="translate(38,37)"/>
<path d="M0 0 C2.64 0.66 5.28 1.32 8 2 C7.3125 4.5 7.3125 4.5 6 8 C5.77441406 8.71929687 5.54882812 9.43859375 5.31640625 10.1796875 C4.15657346 12.88435982 3.38121261 14.22403067 1 16 C-4.41282927 16.70720382 -9.5738625 16.45908566 -15 16 C-14.67 15.01 -14.34 14.02 -14 13 C-10.535 12.505 -10.535 12.505 -7 12 C-7 11.34 -7 10.68 -7 10 C-6.34 10 -5.68 10 -5 10 C-4.731875 9.278125 -4.46375 8.55625 -4.1875 7.8125 C-3.01017502 5.02409874 -1.60854116 2.55904276 0 0 Z " fill="#AFAFAF" transform="translate(15,134)"/>
<path d="M0 0 C2.625 2 2.625 2 4 4 C4 4.99 4 5.98 4 7 C-3.23998208 7.58835069 -9.0731081 6.32586557 -15.921875 3.97265625 C-18.94675971 3.01682339 -21.86338301 2.44607577 -25 2 C-24.01 1.67 -23.02 1.34 -22 1 C-22 0.34 -22 -0.32 -22 -1 C-14.56659582 -4.60407475 -7.36135888 -3.02135773 0 0 Z " fill="#FBF6F6" transform="translate(88,57)"/>
<path d="M0 0 C-2.76223278 2.76223278 -5.20706617 2.57856291 -9 3 C-10.25664978 5.90600261 -11 7.79604584 -11 11 C-6.66463974 12.44512009 -2.24893783 12.39022195 2.28320312 12.60546875 C7.79841662 12.89920831 7.79841662 12.89920831 10 14 C10 14.99 10 15.98 10 17 C12.97 17 15.94 17 19 17 C19 17.33 19 17.66 19 18 C15.37 18 11.74 18 8 18 C7.505 16.515 7.505 16.515 7 15 C6.34926514 14.98541748 5.69853027 14.97083496 5.02807617 14.95581055 C2.08061694 14.88135451 -0.86570642 14.78468734 -3.8125 14.6875 C-5.34874023 14.65366211 -5.34874023 14.65366211 -6.91601562 14.61914062 C-7.89892578 14.58369141 -8.88183594 14.54824219 -9.89453125 14.51171875 C-10.80050049 14.48553467 -11.70646973 14.45935059 -12.63989258 14.43237305 C-15.3773485 13.93086954 -16.28237607 13.1352228 -18 11 C-18.99 11.66 -19.98 12.32 -21 13 C-23.6875 13.125 -23.6875 13.125 -26 13 C-26 12.01 -26 11.02 -26 10 C-25.38511719 9.67386719 -24.77023438 9.34773438 -24.13671875 9.01171875 C-23.32847656 8.57472656 -22.52023438 8.13773438 -21.6875 7.6875 C-20.88699219 7.25824219 -20.08648437 6.82898437 -19.26171875 6.38671875 C-17.15034692 5.09218161 -15.69553049 3.77956552 -14 2 C-9.48367083 -0.523831 -5.02056379 -0.19688485 0 0 Z " fill="#DE1615" transform="translate(56,27)"/>
<path d="M0 0 C4.95 0 9.9 0 15 0 C15 0.99 15 1.98 15 3 C16.32 3.33 17.64 3.66 19 4 C18.78868181 5.58488639 18.57108479 7.16905925 18.33203125 8.75 C18.09582552 10.35064118 17.88783866 11.95555636 17.69921875 13.5625 C16.67913345 20.81643988 14.14332329 25.99348416 10 32 C8.80785117 28.42355352 9.26148636 26.6925682 9.99609375 23.01953125 C10.22490234 21.85615234 10.45371094 20.69277344 10.68945312 19.49414062 C10.93630859 18.27919922 11.18316406 17.06425781 11.4375 15.8125 C11.68048828 14.58595703 11.92347656 13.35941406 12.17382812 12.09570312 C12.77575852 9.06244603 13.38700445 6.03104029 14 3 C9.38 3 4.76 3 0 3 C0 2.01 0 1.02 0 0 Z " fill="#DEDEDE" transform="translate(0,112)"/>
<path d="M0 0 C0 1.65 0 3.3 0 5 C0.66 4.67 1.32 4.34 2 4 C4.3329866 3.95977609 6.66706666 3.95679753 9 4 C9 5.98 9 7.96 9 10 C8.01 9.67 7.02 9.34 6 9 C6 9.66 6 10.32 6 11 C6.99 11.66 7.98 12.32 9 13 C3.39 13 -2.22 13 -8 13 C-7.50632475 3.49675138 -7.50632475 3.49675138 -5.140625 1.17578125 C-3 0 -3 0 0 0 Z " fill="#978F89" transform="translate(90,137)"/>
<path d="M0 0 C2.18381539 3.27572308 2.48244584 4.20286745 2 8 C0.57421875 10.45703125 0.57421875 10.45703125 -1.3125 12.8125 C-1.92738281 13.60269531 -2.54226562 14.39289063 -3.17578125 15.20703125 C-5 17 -5 17 -8 17 C-8 16.01 -8 15.02 -8 14 C-8.66 13.67 -9.32 13.34 -10 13 C-9.34 12.01 -8.68 11.02 -8 10 C-7.92094936 7.66800612 -7.91201231 5.33167378 -8 3 C-9.11375 3.309375 -9.11375 3.309375 -10.25 3.625 C-13.32330841 4.04408751 -14.42786866 3.61949011 -17 2 C-11.60898018 -0.33125181 -5.79754745 -0.88099986 0 0 Z " fill="#4A3F30" transform="translate(107,121)"/>
<path d="M0 0 C0.66 0.33 1.32 0.66 2 1 C2 1.66 2 2.32 2 3 C3.32 3 4.64 3 6 3 C6.33 2.34 6.66 1.68 7 1 C8.10289177 6.51445885 7.88343932 8.34968203 6 14 C1.71 14 -2.58 14 -7 14 C-4.69 9.38 -2.38 4.76 0 0 Z " fill="#D2D2D2" transform="translate(23,136)"/>
<path d="M0 0 C5.28 0 10.56 0 16 0 C15 7 15 7 13.375 9.5 C11 11 11 11 7.5 11.0625 C3.36345571 9.80676334 2.11873309 8.72897025 0 5 C0 3.35 0 1.7 0 0 Z " fill="#75150C" transform="translate(66,127)"/>
<path d="M0 0 C2.41734542 -0.08117951 4.83194949 -0.14056926 7.25 -0.1875 C7.93191406 -0.21263672 8.61382812 -0.23777344 9.31640625 -0.26367188 C13.71897742 -0.32778699 15.6343786 0.30176195 19 3 C21.50111199 3.14820186 21.50111199 3.14820186 24.0625 2.6875 C26.77734585 2.30782983 29.25161215 2 32 2 C32.66 2.99 33.32 3.98 34 5 C33.67 5.99 33.34 6.98 33 8 C32.62875 7.505 32.2575 7.01 31.875 6.5 C29.22454058 4.37963246 27.30439359 4.71877501 24 5 C21.66924071 5.95865509 21.66924071 5.95865509 20 9 C17.1875 8.75 17.1875 8.75 14 8 C13.54625 7.34 13.0925 6.68 12.625 6 C10.63879858 3.5554444 9.85285453 3.61207374 6.8125 3.25 C5.554375 3.1675 4.29625 3.085 3 3 C3 2.34 3 1.68 3 1 C2.01 0.67 1.02 0.34 0 0 Z " fill="#E12C2A" transform="translate(105,53)"/>
<path d="M0 0 C0.99 0 1.98 0 3 0 C3 0.66 3 1.32 3 2 C3.99 2.33 4.98 2.66 6 3 C6.41903446 6.42544041 6.61401833 9.5916779 6 13 C3.99894063 15.33456926 1.7867582 16.73025406 -1 18 C-1.33 18 -1.66 18 -2 18 C-2.05397335 15.5622037 -2.09365616 13.12560315 -2.125 10.6875 C-2.14175781 9.99720703 -2.15851562 9.30691406 -2.17578125 8.59570312 C-2.21217794 4.82864604 -2.14378864 3.21568296 0 0 Z " fill="#796C62" transform="translate(40,120)"/>
<path d="M0 0 C7.92701739 -0.65572754 12.73514729 0.03914378 19 5 C19.99 5.70125 20.98 6.4025 22 7.125 C22.66 7.74375 23.32 8.3625 24 9 C24 9.99 24 10.98 24 12 C18.02859313 11.54586388 13.69082073 8.87438331 8.625 5.9375 C7.79355469 5.46505859 6.96210937 4.99261719 6.10546875 4.50585938 C4.0655651 3.34522454 2.03077982 2.17650227 0 1 C0 0.67 0 0.34 0 0 Z " fill="#FCF8F8" transform="translate(98,28)"/>
<path d="M0 0 C3.42724441 5.14086661 3.1015597 10.00797796 3 16 C1.44148245 16.82011312 -0.12201716 17.63076213 -1.6875 18.4375 C-2.99267578 19.11619141 -2.99267578 19.11619141 -4.32421875 19.80859375 C-6.90998264 20.95991928 -9.21356528 21.56320753 -12 22 C-12 21.34 -12 20.68 -12 20 C-11.360625 19.87625 -10.72125 19.7525 -10.0625 19.625 C-9.381875 19.41875 -8.70125 19.2125 -8 19 C-7.67 18.34 -7.34 17.68 -7 17 C-7.99 17 -8.98 17 -10 17 C-10.66 15.35 -11.32 13.7 -12 12 C-8.37 12.33 -4.74 12.66 -1 13 C-0.835 11.5975 -0.67 10.195 -0.5 8.75 C-0.4071875 7.96109375 -0.314375 7.1721875 -0.21875 6.359375 C0.06154619 3.73109603 0.06154619 3.73109603 0 0 Z " fill="#6C0504" transform="translate(139,61)"/>
<path d="M0 0 C0.33 0.66 0.66 1.32 1 2 C3.31 1.34 5.62 0.68 8 0 C6.54266958 4.61487965 6.54266958 4.61487965 4.0625 6.375 C2 7 2 7 -1 6 C-1 5.34 -1 4.68 -1 4 C-2.32 4 -3.64 4 -5 4 C-5 4.99 -5 5.98 -5 7 C-7.31 7.66 -9.62 8.32 -12 9 C-12 9.66 -12 10.32 -12 11 C-12.66 11 -13.32 11 -14 11 C-14.26171875 8.70703125 -14.26171875 8.70703125 -14 6 C-12.20703125 4.19921875 -12.20703125 4.19921875 -9.8125 2.6875 C-8.64654297 1.91986328 -8.64654297 1.91986328 -7.45703125 1.13671875 C-4.74944321 -0.11591737 -2.9470119 -0.22508261 0 0 Z " fill="#741B12" transform="translate(52,132)"/>
<path d="M0 0 C-14.42499358 0.07127364 -28.8297094 -0.1434412 -43.25 -0.5 C-45.27864068 -0.54839377 -47.30728651 -0.59657183 -49.3359375 -0.64453125 C-54.22402105 -0.76054767 -59.11202659 -0.87943597 -64 -1 C-64 -1.33 -64 -1.66 -64 -2 C-8.60612691 -5.73741794 -8.60612691 -5.73741794 0 0 Z " fill="#740C0C" transform="translate(101,83)"/>
<path d="M0 0 C6.18559136 0.28116324 10.64227914 2.67698834 16.03515625 5.625 C19.07312412 7.03391264 21.68895286 7.60641342 25 8 C24.67 8.99 24.34 9.98 24 11 C20.7 11 17.4 11 14 11 C14 10.01 14 9.02 14 8 C9.41664092 6.07794619 4.72065967 4.54269924 0 3 C0 2.01 0 1.02 0 0 Z " fill="#FDFDFD" transform="translate(15,112)"/>
<path d="M0 0 C0.7734375 0.495 0.7734375 0.495 1.5625 1 C-0.7475 1 -3.0575 1 -5.4375 1 C-5.1075 1.99 -4.7775 2.98 -4.4375 4 C-2.44632592 4.69258229 -0.4453864 5.35747635 1.5625 6 C3.2578125 7.5625 3.2578125 7.5625 4.5625 9 C-2.78217941 7.38168081 -10.11099113 5.69857238 -17.4375 4 C-16.4475 3.67 -15.4575 3.34 -14.4375 3 C-14.4375 2.34 -14.4375 1.68 -14.4375 1 C-9.6526169 -1.31994332 -5.02411005 -2.06117335 0 0 Z " fill="#F5E5E4" transform="translate(80.4375,55)"/>
<path d="M0 0 C3.53677664 -0.32152515 5.3962104 -0.4131192 8.375 1.625 C10.4131192 4.6037896 10.32152515 6.46322336 10 10 C6.2241456 9.47557578 3.77627845 8.67345333 1 6 C1 5.01 1 4.02 1 3 C0.34 3 -0.32 3 -1 3 C-0.67 2.01 -0.34 1.02 0 0 Z " fill="#FBF0EE" transform="translate(129,57)"/>
<path d="M0 0 C2.9746228 2.82984027 5.39997658 5.76065023 7.75 9.125 C8.67039063 10.42824219 8.67039063 10.42824219 9.609375 11.7578125 C11 14 11 14 11 16 C8.7421875 16.32421875 8.7421875 16.32421875 6 16 C3.9453125 13.76953125 3.9453125 13.76953125 2.125 10.8125 C1.50882812 9.84957031 0.89265625 8.88664063 0.2578125 7.89453125 C-1.14627502 4.66338575 -1.0721178 3.29465413 0 0 Z " fill="#E4E4E4" transform="translate(120,134)"/>
<path d="M0 0 C1.86323318 0.25288812 3.71708432 0.57690153 5.5625 0.9375 C6.57441406 1.13214844 7.58632812 1.32679687 8.62890625 1.52734375 C9.80259766 1.76130859 9.80259766 1.76130859 11 2 C11.33 3.32 11.66 4.64 12 6 C9.72975032 6.08097324 7.45867925 6.13917704 5.1875 6.1875 C3.29064453 6.23970703 3.29064453 6.23970703 1.35546875 6.29296875 C-2 6 -2 6 -3.94921875 4.48828125 C-4.29597656 3.99714844 -4.64273438 3.50601563 -5 3 C-4.360625 2.690625 -3.72125 2.38125 -3.0625 2.0625 C-1.06389179 1.1654837 -1.06389179 1.1654837 0 0 Z " fill="#BFBEBD" transform="translate(66,120)"/>
<path d="M0 0 C0.33 1.32 0.66 2.64 1 4 C1.66 4 2.32 4 3 4 C3 3.34 3 2.68 3 2 C6 0 6 0 10 0 C10 0.66 10 1.32 10 2 C10.66 2 11.32 2 12 2 C12 2.99 12 3.98 12 5 C10.3767313 5.6708712 8.75132422 6.33657029 7.125 7 C5.76761719 7.556875 5.76761719 7.556875 4.3828125 8.125 C2 9 2 9 0 9 C0 6.03 0 3.06 0 0 Z " fill="#544535" transform="translate(37,139)"/>
<path d="M0 0 C0.33 0 0.66 0 1 0 C1 3.3 1 6.6 1 10 C-4.02439385 11.67479795 -8.90085558 11.23615622 -14 10 C-12.625 8 -12.625 8 -11 6 C-10.34 6 -9.68 6 -9 6 C-9 6.99 -9 7.98 -9 9 C-4.54907632 6.77453816 -2.60403447 4.1850554 0 0 Z " fill="#746054" transform="translate(108,129)"/>
<path d="M0 0 C0.66 0 1.32 0 2 0 C2.94401042 1.7578125 3.88802083 3.515625 4.83203125 5.2734375 C6.04763493 7.30502365 6.04763493 7.30502365 9 9 C13.33641221 8.92115614 15.30372975 8.71459315 18.375 5.5625 C19.97342069 3.13759832 19.97342069 3.13759832 21 1 C21.66 1 22.32 1 23 1 C22.51540644 5.19981085 20.21623381 8.38730636 17 11 C14.21947861 12.21829973 11.99374956 12.52730816 9 12 C4.76687653 9.70981406 2.43971905 7.03238386 0.5625 2.625 C0.376875 1.75875 0.19125 0.8925 0 0 Z " fill="#242424" transform="translate(62,110)"/>
<path d="M0 0 C1.98 0 3.96 0 6 0 C4.83794969 4.93871381 3.6922906 8.3077094 0 12 C-0.99 12 -1.98 12 -3 12 C-3 11.01 -3 10.02 -3 9 C-3.66 8.67 -4.32 8.34 -5 8 C-4.01 7.67 -3.02 7.34 -2 7 C-0.77030122 3.48809191 -0.77030122 3.48809191 0 0 Z " fill="#513929" transform="translate(102,126)"/>
<path d="M0 0 C-0.33 2.97 -0.66 5.94 -1 9 C-3.97 9 -6.94 9 -10 9 C-9.67 6.36 -9.34 3.72 -9 1 C-8.67 2.32 -8.34 3.64 -8 5 C-7.34 5 -6.68 5 -6 5 C-6 4.34 -6 3.68 -6 3 C-1.5 0 -1.5 0 0 0 Z " fill="#5C4C41" transform="translate(62,141)"/>
<path d="M0 0 C0.66 1.65 1.32 3.3 2 5 C-3.28 5 -8.56 5 -14 5 C-8.830606 1.1229545 -6.49386689 -0.29517577 0 0 Z " fill="#F5F4F3" transform="translate(49,145)"/>
<path d="M0 0 C0.66 0 1.32 0 2 0 C2 0.66 2 1.32 2 2 C3.19625 1.835 4.3925 1.67 5.625 1.5 C9.10548715 1.06029433 12.48771488 0.91219287 16 1 C16.05395478 2.62463842 16.09277195 4.24978541 16.125 5.875 C16.14820312 6.77992188 16.17140625 7.68484375 16.1953125 8.6171875 C16 11 16 11 14 13 C13.34 13 12.68 13 12 13 C12.309375 12.4225 12.61875 11.845 12.9375 11.25 C13.92583364 9.15705816 14.5168613 7.25464725 15 5 C14.236875 5.20625 13.47375 5.4125 12.6875 5.625 C10 6 10 6 7 4 C5.0103005 3.60986284 3.00980131 3.26797351 1 3 C0.67 2.01 0.34 1.02 0 0 Z " fill="#AB4E48" transform="translate(46,123)"/>
<path d="M0 0 C1.70884005 1.62339805 3.37446717 3.29319053 5 5 C5 5.66 5 6.32 5 7 C2.03 8.32 -0.94 9.64 -4 11 C-4.36630156 7.06225823 -4.30233203 5.43460229 -2 2.125 C-1.34 1.42375 -0.68 0.7225 0 0 Z " fill="#B6B4B4" transform="translate(12,48)"/>
<path d="M0 0 C4.95 0 9.9 0 15 0 C16.09658936 3.28976808 15.79953138 4.71303767 15 8 C14.505 7.360625 14.01 6.72125 13.5 6.0625 C10.01193613 3.18484731 7.46538959 3.29769264 3 3 C3 2.34 3 1.68 3 1 C2.01 0.67 1.02 0.34 0 0 Z " fill="#E22826" transform="translate(105,53)"/>
<path d="M0 0 C0.33 0 0.66 0 1 0 C1 1.65 1 3.3 1 5 C3.64 5 6.28 5 9 5 C8.67 5.99 8.34 6.98 8 8 C8.99 8 9.98 8 11 8 C11 8.66 11 9.32 11 10 C7.04 10 3.08 10 -1 10 C-0.67 6.7 -0.34 3.4 0 0 Z " fill="#8C8781" transform="translate(83,140)"/>
<path d="M0 0 C5.4185766 -0.22577402 9.77487721 0.53329887 15 2 C15 2.66 15 3.32 15 4 C15.66 4.33 16.32 4.66 17 5 C13.04 5 9.08 5 5 5 C5 4.34 5 3.68 5 3 C3.02 3 1.04 3 -1 3 C-0.67 2.01 -0.34 1.02 0 0 Z " fill="#BD988F" transform="translate(43,120)"/>
<path d="M0 0 C6.6 0 13.2 0 20 0 C20 0.99 20 1.98 20 3 C17.79194476 3.0544452 15.58349446 3.09299283 13.375 3.125 C12.14523438 3.14820312 10.91546875 3.17140625 9.6484375 3.1953125 C6.05683959 3.0030428 3.33338825 2.30258556 0 1 C0 0.67 0 0.34 0 0 Z " fill="#F3EDED" transform="translate(82,84)"/>
<path d="M0 0 C2.31 0.66 4.62 1.32 7 2 C6.34 3.65 5.68 5.3 5 7 C2.03 7 -0.94 7 -4 7 C-4.66 5.68 -5.32 4.36 -6 3 C-3.525 3.99 -3.525 3.99 -1 5 C-0.67 3.35 -0.34 1.7 0 0 Z " fill="#D3BEBD" transform="translate(133,67)"/>
<path d="M0 0 C4.1575527 1.21684469 7.57009579 2.84807499 11.25390625 5.046875 C13.72612999 6.39636626 16.30484192 7.21117324 19 8 C19 8.99 19 9.98 19 11 C15.37 9.68 11.74 8.36 8 7 C8 6.34 8 5.68 8 5 C7.01 5.33 6.02 5.66 5 6 C2.3125 4.1875 2.3125 4.1875 0 2 C0 1.34 0 0.68 0 0 Z " fill="#EE4647" transform="translate(105,33)"/>
<path d="M0 0 C-0.33 1.65 -0.66 3.3 -1 5 C-3.31 5.66 -5.62 6.32 -8 7 C-8 7.66 -8 8.32 -8 9 C-8.66 9 -9.32 9 -10 9 C-10.4375 6.8125 -10.4375 6.8125 -10 4 C-6.84483974 0.78546844 -4.45282842 -1.48427614 0 0 Z " fill="#332615" transform="translate(48,134)"/>
<path d="M0 0 C1 1 1 1 1.0625 4.0625 C1.041875 5.031875 1.02125 6.00125 1 7 C0.01 7.495 0.01 7.495 -1 8 C-3.66666667 5.33333333 -6.33333333 2.66666667 -9 0 C-5.90842747 -1.54578627 -3.31526981 -0.60277633 0 0 Z " fill="#FBF5F4" transform="translate(22,47)"/>
<path d="M0 0 C0.25 3.3125 0.25 3.3125 0 7 C-1.875 8.9375 -1.875 8.9375 -4 10 C-4.66 10 -5.32 10 -6 10 C-6 10.66 -6 11.32 -6 12 C-6.66 12 -7.32 12 -8 12 C-8 10.02 -8 8.04 -8 6 C-6.68 6.33 -5.36 6.66 -4 7 C-4.061875 6.21625 -4.12375 5.4325 -4.1875 4.625 C-4.125625 3.75875 -4.06375 2.8925 -4 2 C-1 0 -1 0 0 0 Z " fill="#75675D" transform="translate(62,134)"/>
<path d="M0 0 C8.78723404 -0.29787234 8.78723404 -0.29787234 13 2 C13.33 2.66 13.66 3.32 14 4 C10.04 4 6.08 4 2 4 C1.34 2.68 0.68 1.36 0 0 Z " fill="#F8F9F7" transform="translate(107,121)"/>
<path d="M0 0 C1.8871875 0.0309375 1.8871875 0.0309375 3.8125 0.0625 C3.4825 1.0525 3.1525 2.0425 2.8125 3.0625 C0.1725 3.0625 -2.4675 3.0625 -5.1875 3.0625 C-5.27 3.825625 -5.3525 4.58875 -5.4375 5.375 C-6.33365794 8.58623261 -7.40361025 9.35624499 -10.1875 11.0625 C-10.8475 10.7325 -11.5075 10.4025 -12.1875 10.0625 C-11.548125 9.505625 -10.90875 8.94875 -10.25 8.375 C-7.99069013 5.84183439 -7.55600953 4.37908576 -7.1875 1.0625 C-4.43671116 0.14557039 -2.82801087 -0.04636083 0 0 Z " fill="#AC0D0E" transform="translate(100.1875,61.9375)"/>
<path d="M0 0 C0.33 0.66 0.66 1.32 1 2 C1.66 2 2.32 2 3 2 C2.67 5.3 2.34 8.6 2 12 C1.01 12 0.02 12 -1 12 C-2.24834144 9.50331711 -1.95155125 8.18670849 -1.625 5.4375 C-1.53476563 4.63183594 -1.44453125 3.82617188 -1.3515625 2.99609375 C-1 1 -1 1 0 0 Z " fill="#DFC2C4" transform="translate(127,58)"/>
<path d="M0 0 C2.3828125 -0.29296875 2.3828125 -0.29296875 5.125 -0.1875 C6.03507812 -0.16042969 6.94515625 -0.13335937 7.8828125 -0.10546875 C8.58148438 -0.07066406 9.28015625 -0.03585938 10 0 C9.67 0.66 9.34 1.32 9 2 C6.71484375 2.6328125 6.71484375 2.6328125 3.9375 3.125 C3.01839844 3.29257813 2.09929687 3.46015625 1.15234375 3.6328125 C0.08693359 3.81457031 0.08693359 3.81457031 -1 4 C-1 4.66 -1 5.32 -1 6 C-2.98 6.33 -4.96 6.66 -7 7 C-7 6.34 -7 5.68 -7 5 C-6.21625 4.731875 -5.4325 4.46375 -4.625 4.1875 C-1.71885077 3.15185568 -1.71885077 3.15185568 0 0 Z " fill="#ADA29B" transform="translate(90,119)"/>
<path d="M0 0 C0.8971875 0.309375 0.8971875 0.309375 1.8125 0.625 C0.389375 1.4603125 0.389375 1.4603125 -1.0625 2.3125 C-4.29255781 4.70274278 -5.51665399 5.6957591 -6.1875 9.625 C-4.63143624 13.14661797 -3.42057656 14.46961563 -0.1875 16.625 C-3 16.5625 -3 16.5625 -6.1875 15.625 C-8.3125 12.5 -8.3125 12.5 -9.1875 8.625 C-7.86104434 4.38204247 -5.02894289 -0.8621045 0 0 Z " fill="#911C1B" transform="translate(64.1875,55.375)"/>
<path d="M0 0 C4.92127034 -0.16682272 8.50343896 -0.24828052 13 2 C13 2.66 13 3.32 13 4 C9.37 4 5.74 4 2 4 C2 3.01 2 2.02 2 1 C1.34 0.67 0.68 0.34 0 0 Z " fill="#E71617" transform="translate(64,40)"/>
<path d="M0 0 C4.54978346 0.53843591 7.78649891 1.72262921 11.75 4 C12.69359375 4.53625 13.6371875 5.0725 14.609375 5.625 C15.39828125 6.07875 16.1871875 6.5325 17 7 C17.66 7.33 18.32 7.66 19 8 C19 8.66 19 9.32 19 10 C14.37324343 8.6077541 10.35313769 6.70479016 6.125 4.375 C4.97257812 3.74335937 3.82015625 3.11171875 2.6328125 2.4609375 C1.32957031 1.73777344 1.32957031 1.73777344 0 1 C0 0.67 0 0.34 0 0 Z " fill="#ECBEBF" transform="translate(101,30)"/>
<path d="M0 0 C-4.21222474 4.21222474 -11.25721144 5.26374506 -17 6 C-12.78951965 -0.64812687 -7.18368382 -0.28171309 0 0 Z " fill="#F9D9DA" transform="translate(56,27)"/>
<path d="M0 0 C-0.78375 0.45375 -1.5675 0.9075 -2.375 1.375 C-6.09558679 5.09558679 -6.34962042 8.91344923 -7 14 C-7.66 14 -8.32 14 -9 14 C-8.88512252 12.41590006 -8.75765492 10.83271037 -8.625 9.25 C-8.55539063 8.36828125 -8.48578125 7.4865625 -8.4140625 6.578125 C-7.99277258 3.95499911 -7.46429303 2.21138132 -6 0 C-3 -1 -3 -1 0 0 Z " fill="#624B3C" transform="translate(89,136)"/>
<path d="M0 0 C0.66 0.33 1.32 0.66 2 1 C2 3.64 2 6.28 2 9 C0.68 9 -0.64 9 -2 9 C-2.99 6.69 -3.98 4.38 -5 2 C-3.35 2 -1.7 2 0 2 C0 1.34 0 0.68 0 0 Z " fill="#B14740" transform="translate(89,123)"/>
<path d="M0 0 C1.32 0 2.64 0 4 0 C4.33 1.65 4.66 3.3 5 5 C2.69 5.66 0.38 6.32 -2 7 C-2.125 4.625 -2.125 4.625 -2 2 C-1.34 1.34 -0.68 0.68 0 0 Z " fill="#BB5144" transform="translate(95,124)"/>
<path d="M0 0 C0.33 0.66 0.66 1.32 1 2 C2.65 2 4.3 2 6 2 C6 3.98 6 5.96 6 8 C4.02 8.33 2.04 8.66 0 9 C0 6.03 0 3.06 0 0 Z " fill="#A23327" transform="translate(46,124)"/>
<path d="M0 0 C15.92938497 0.41002278 15.92938497 0.41002278 22 5 C18.13274386 6.28908538 16.51755077 5.40610118 12.6875 4.125 C8.45425454 2.71883484 4.41987188 1.62854456 0 1 C0 0.67 0 0.34 0 0 Z " fill="#DBD9DA" transform="translate(63,58)"/>
<path d="M0 0 C0.33 0 0.66 0 1 0 C1 3.63 1 7.26 1 11 C-0.32 11 -1.64 11 -3 11 C-3 10.34 -3 9.68 -3 9 C-4.32 8.67 -5.64 8.34 -7 8 C-5.02 7.34 -3.04 6.68 -1 6 C-1.020625 5.195625 -1.04125 4.39125 -1.0625 3.5625 C-1 1 -1 1 0 0 Z " fill="#776B63" transform="translate(108,139)"/>
<path d="M0 0 C-0.33 1.65 -0.66 3.3 -1 5 C-1.66 5 -2.32 5 -3 5 C-3 5.66 -3 6.32 -3 7 C-4.32 7 -5.64 7 -7 7 C-7 5.02 -7 3.04 -7 1 C-2.25 0 -2.25 0 0 0 Z " fill="#AA2F23" transform="translate(81,127)"/>
<path d="M0 0 C2 1 2 1 2.71484375 2.734375 C3.07550916 5.59993577 2.46183383 7.51602516 1.5625 10.25 C1.27503906 11.14203125 0.98757812 12.0340625 0.69140625 12.953125 C0.46324219 13.62859375 0.23507813 14.3040625 0 15 C-0.66 15 -1.32 15 -2 15 C-1.90460937 14.22914062 -1.80921875 13.45828125 -1.7109375 12.6640625 C-1.60007812 11.66117188 -1.48921875 10.65828125 -1.375 9.625 C-1.25898438 8.62726562 -1.14296875 7.62953125 -1.0234375 6.6015625 C-1.01183594 5.31378906 -1.01183594 5.31378906 -1 4 C-1.66 3.34 -2.32 2.68 -3 2 C-2.01 1.34 -1.02 0.68 0 0 Z " fill="#8E1D1C" transform="translate(23,44)"/>
<path d="M0 0 C1.89213369 2.38573379 3.02391783 4.07175348 4 7 C5.32 7 6.64 7 8 7 C8.66 9.31 9.32 11.62 10 14 C6.69744449 13.75536626 5.74081575 12.74684329 3.3125 10.375 C0.73689701 7.11994346 0.24861056 4.14350932 0 0 Z " fill="#7E2D24" transform="translate(84,126)"/>
<path d="M0 0 C2.97 0 5.94 0 9 0 C8.625 2.4375 8.625 2.4375 8 5 C7.01 5.495 7.01 5.495 6 6 C6.33 4.68 6.66 3.36 7 2 C5.35 1.67 3.7 1.34 2 1 C1.67 3.97 1.34 6.94 1 10 C0.67 9.34 0.34 8.68 0 8 C-0.66 7.67 -1.32 7.34 -2 7 C-1.34 4.69 -0.68 2.38 0 0 Z " fill="#422413" transform="translate(100,125)"/>
<path d="M0 0 C1.98836084 2.98254126 2.34336635 4.13808808 2.6875 7.5625 C2.77386719 8.34753906 2.86023438 9.13257812 2.94921875 9.94140625 C3 12 3 12 2 14 C-1.3 14 -4.6 14 -8 14 C-8 13.67 -8 13.34 -8 13 C-5.69 13 -3.38 13 -1 13 C-0.83052421 11.58366664 -0.66454493 10.16691467 -0.5 8.75 C-0.4071875 7.96109375 -0.314375 7.1721875 -0.21875 6.359375 C0.06154619 3.73109603 0.06154619 3.73109603 0 0 Z " fill="#A53C3E" transform="translate(139,61)"/>
<path d="M0 0 C8.57142857 0.85714286 8.57142857 0.85714286 12 3 C12 3.99 12 4.98 12 6 C10.68 6 9.36 6 8 6 C7.67 5.34 7.34 4.68 7 4 C4.69034152 2.94647157 2.3570226 1.94280904 0 1 C0 0.67 0 0.34 0 0 Z " fill="#F8F8F8" transform="translate(17,133)"/>
<path d="M0 0 C0.99 0 1.98 0 3 0 C3.99 2.97 4.98 5.94 6 9 C4.68 9.33 3.36 9.66 2 10 C1.67 10.66 1.34 11.32 1 12 C0.67 8.04 0.34 4.08 0 0 Z " fill="#563A27" transform="translate(81,126)"/>
<path d="M0 0 C4.62 0.66 9.24 1.32 14 2 C14.33 1.34 14.66 0.68 15 0 C15 0.99 15 1.98 15 3 C10.46298506 4.45184478 6.81938524 5.23509196 2 5 C1.34 3.35 0.68 1.7 0 0 Z " fill="#880E0F" transform="translate(127,73)"/>
<path d="M0 0 C0 0.33 0 0.66 0 1 C-8.46561098 2.12298921 -16.51200811 1.80542989 -25 1 C-25 0.67 -25 0.34 -25 0 C-16.51200811 -0.80542989 -8.46561098 -1.12298921 0 0 Z " fill="#E32C2C" transform="translate(87,26)"/>
<path d="M0 0 C3.63 0 7.26 0 11 0 C10.67 0.99 10.34 1.98 10 3 C6.7 3 3.4 3 0 3 C0 2.01 0 1.02 0 0 Z " fill="#F4F2F2" transform="translate(29,120)"/>
<path d="M0 0 C5.28 0.33 10.56 0.66 16 1 C14 3 14 3 11.7578125 3.265625 C10.88898438 3.26046875 10.02015625 3.2553125 9.125 3.25 C8.26132813 3.25515625 7.39765625 3.2603125 6.5078125 3.265625 C3.89526423 2.98890649 2.2499912 2.3185995 0 1 C0 0.67 0 0.34 0 0 Z " fill="#CAA6A2" transform="translate(65,125)"/>
<path d="M0 0 C5.44915409 1.10830253 8.84015388 2.10014426 13 6 C10.23723823 5.47731534 7.6739124 4.89130413 5 4 C4.01 4.33 3.02 4.66 2 5 C1.34 4.34 0.68 3.68 0 3 C0 2.01 0 1.02 0 0 Z " fill="#EF413F" transform="translate(92,27)"/>
<path d="M0 0 C1.98 0 3.96 0 6 0 C4.68 2.64 3.36 5.28 2 8 C1.34 8 0.68 8 0 8 C0 5.36 0 2.72 0 0 Z " fill="#655446" transform="translate(102,126)"/>
<path d="M0 0 C0.33 0 0.66 0 1 0 C1.12117188 0.61488281 1.24234375 1.22976562 1.3671875 1.86328125 C1.53476563 2.67152344 1.70234375 3.47976562 1.875 4.3125 C2.03742188 5.11300781 2.19984375 5.91351563 2.3671875 6.73828125 C2.94478999 9.25301118 2.94478999 9.25301118 5 12 C3.68 11.67 2.36 11.34 1 11 C1 10.34 1 9.68 1 9 C-0.65 8.67 -2.3 8.34 -4 8 C-3.2884375 7.13375 -3.2884375 7.13375 -2.5625 6.25 C-1.0515133 4.07417916 -0.45963849 2.57397552 0 0 Z " fill="#A21E20" transform="translate(124,61)"/>
<path d="M0 0 C0.78503906 -0.01675781 1.57007813 -0.03351562 2.37890625 -0.05078125 C3.39791016 0.12904297 3.39791016 0.12904297 4.4375 0.3125 C5.0975 1.3025 5.7575 2.2925 6.4375 3.3125 C6.1075 4.3025 5.7775 5.2925 5.4375 6.3125 C5.06625 5.8175 4.695 5.3225 4.3125 4.8125 C1.65334514 2.68517611 -0.24127525 3.03573127 -3.5625 3.3125 C-4.5525 3.6425 -5.5425 3.9725 -6.5625 4.3125 C-6.8925 3.6525 -7.2225 2.9925 -7.5625 2.3125 C-4.45212372 0.23891581 -3.56688748 0.01762877 0 0 Z " fill="#E33A3B" transform="translate(132.5625,54.6875)"/>
<path d="M0 0 C0.33 1.32 0.66 2.64 1 4 C2.32 3.67 3.64 3.34 5 3 C5.33 4.32 5.66 5.64 6 7 C4.02 7.66 2.04 8.32 0 9 C0 6.03 0 3.06 0 0 Z " fill="#685D51" transform="translate(37,139)"/>
<path d="M0 0 C0 1.98 0 3.96 0 6 C-2.64 6 -5.28 6 -8 6 C-2.2 0 -2.2 0 0 0 Z " fill="#7D6D61" transform="translate(61,144)"/>
<path d="M0 0 C2.97 0.495 2.97 0.495 6 1 C6 2.65 6 4.3 6 6 C3.13275314 5.42655063 2.1385485 5.1385485 0 3 C0 2.01 0 1.02 0 0 Z " fill="#A32C25" transform="translate(66,127)"/>
<path d="M0 0 C6.20970773 -0.33266291 10.28264895 0.54970669 16 3 C16 3.33 16 3.66 16 4 C10.43109483 3.52013969 5.32932432 2.70084819 0 1 C0 0.67 0 0.34 0 0 Z " fill="#CDCDCD" transform="translate(78,85)"/>
<path d="M0 0 C0.66 0.33 1.32 0.66 2 1 C1.4140625 7.15234375 1.4140625 7.15234375 1 9 C0.01 9.495 0.01 9.495 -1 10 C-2.1875 7.25 -2.1875 7.25 -3 4 C-1.625 1.625 -1.625 1.625 0 0 Z " fill="#C9A9A7" transform="translate(60,59)"/>
<path d="M0 0 C0.33 0 0.66 0 1 0 C1 1.65 1 3.3 1 5 C1.66 5 2.32 5 3 5 C3 5.66 3 6.32 3 7 C3.66 7.33 4.32 7.66 5 8 C4.34 8 3.68 8 3 8 C3 8.66 3 9.32 3 10 C1.68 10 0.36 10 -1 10 C-0.67 6.7 -0.34 3.4 0 0 Z " fill="#887D77" transform="translate(83,140)"/>
<path d="M0 0 C0.33 0.99 0.66 1.98 1 3 C-0.98 4.98 -2.96 6.96 -5 9 C-5.99 8.67 -6.98 8.34 -8 8 C-5.36 5.36 -2.72 2.72 0 0 Z " fill="#959595" transform="translate(124,112)"/>
<path d="M0 0 C0.99 0.33 1.98 0.66 3 1 C3 2.65 3 4.3 3 6 C1.68 6 0.36 6 -1 6 C-1.042721 4.33388095 -1.04063832 2.66617115 -1 1 C-0.67 0.67 -0.34 0.34 0 0 Z " fill="#1E1E1E" transform="translate(68,89)"/>
<path d="M0 0 C1.65 0.33 3.3 0.66 5 1 C4.34 2.65 3.68 4.3 3 6 C1.68 5.67 0.36 5.34 -1 5 C-0.67 3.35 -0.34 1.7 0 0 Z " fill="#C2B0B0" transform="translate(135,68)"/>
<path d="M0 0 C-1.1858237 3.37503669 -2.27573689 5.64722731 -5 8 C-5.6875 5.6875 -5.6875 5.6875 -6 3 C-4.0819994 0.21889913 -3.45555657 0 0 0 Z " fill="#CFB8B7" transform="translate(22,55)"/>
<path d="M0 0 C0.33 0.66 0.66 1.32 1 2 C1.99 2.33 2.98 2.66 4 3 C0.77208445 5.1519437 -0.28400809 5.20086443 -4 5 C-4 4.01 -4 3.02 -4 2 C-2.68 1.34 -1.36 0.68 0 0 Z " fill="#D21114" transform="translate(34,35)"/>
<path d="M0 0 C0.33 0 0.66 0 1 0 C1.44041451 5.28497409 1.44041451 5.28497409 1 8 C-1.5 10.5 -1.5 10.5 -4 12 C-4.66 11.67 -5.32 11.34 -6 11 C-4.6875 9 -4.6875 9 -3 7 C-2.01 7 -1.02 7 0 7 C0 4.69 0 2.38 0 0 Z " fill="#745D50" transform="translate(45,125)"/>
<path d="M0 0 C7.75 0.75 7.75 0.75 10 3 C8.35 3.33 6.7 3.66 5 4 C5 3.34 5 2.68 5 2 C3.02 2 1.04 2 -1 2 C-0.67 1.34 -0.34 0.68 0 0 Z " fill="#BC877C" transform="translate(43,121)"/>
<path d="M0 0 C0.99 0.33 1.98 0.66 3 1 C3 2.65 3 4.3 3 6 C1.68 6 0.36 6 -1 6 C-0.67 4.02 -0.34 2.04 0 0 Z " fill="#1C1C1C" transform="translate(78,89)"/>
<path d="M0 0 C1.32 0.66 2.64 1.32 4 2 C3.34 3.32 2.68 4.64 2 6 C0.68 6 -0.64 6 -2 6 C-1.49396008 3.83125748 -1.00016187 2.00032373 0 0 Z " fill="#A1A1A1" transform="translate(10,50)"/>
<path d="M0 0 C2.64 0.66 5.28 1.32 8 2 C8 2.66 8 3.32 8 4 C4.65747276 4.07427838 2.1964086 4.06546953 -1 3 C-0.67 2.01 -0.34 1.02 0 0 Z " fill="#A7090B" transform="translate(23,42)"/>
<path d="M0 0 C3.96 0 7.92 0 12 0 C12.33 0.66 12.66 1.32 13 2 C12.40832031 1.98839844 11.81664063 1.97679687 11.20703125 1.96484375 C6.99768215 1.91677614 3.1077667 1.93993117 -1 3 C-0.67 2.01 -0.34 1.02 0 0 Z " fill="#B52F2F" transform="translate(67,53)"/>
<path d="M0 0 C0 2.31 0 4.62 0 7 C-1.32 7 -2.64 7 -4 7 C-4.1875 4.625 -4.1875 4.625 -4 2 C-1 0 -1 0 0 0 Z " fill="#7F7367" transform="translate(62,134)"/>
<path d="M0 0 C3.3 0 6.6 0 10 0 C10 0.33 10 0.66 10 1 C8.906875 1.28875 7.81375 1.5775 6.6875 1.875 C2.95986155 2.81893204 2.95986155 2.81893204 0 5 C0 3.35 0 1.7 0 0 Z " fill="#AFA1A0" transform="translate(47,82)"/>
<path d="M0 0 C1.65 0 3.3 0 5 0 C3.63016497 3.16115776 3.0109362 3.9927092 0 6 C0 4.02 0 2.04 0 0 Z " fill="#CAA8AB" transform="translate(88,66)"/>
<path d="M0 0 C0.6875 1.6875 0.6875 1.6875 1 4 C-0.64076492 7.44560634 -1.78512442 8.85674962 -5 11 C-4.34 9.02 -3.68 7.04 -3 5 C-2.34 5 -1.68 5 -1 5 C-0.67 3.35 -0.34 1.7 0 0 Z " fill="#631D0E" transform="translate(81,127)"/>
<path d="M0 0 C0.33 0 0.66 0 1 0 C1 1.98 1 3.96 1 6 C-0.65 6.33 -2.3 6.66 -4 7 C-2.68 4.69 -1.36 2.38 0 0 Z " fill="#605243" transform="translate(108,129)"/>
<path d="M0 0 C0.33 0 0.66 0 1 0 C1.33 1.98 1.66 3.96 2 6 C0.35 7.32 -1.3 8.64 -3 10 C-3.66 9.67 -4.32 9.34 -5 9 C-4.360625 8.443125 -3.72125 7.88625 -3.0625 7.3125 C-0.80319013 4.77933439 -0.36850953 3.31658576 0 0 Z " fill="#8C1114" transform="translate(93,63)"/>
<path d="M0 0 C1.98 0.495 1.98 0.495 4 1 C2.62845496 3.95409701 1.01136276 6.44008376 -1 9 C-0.67 6.03 -0.34 3.06 0 0 Z " fill="#D1D1D1" transform="translate(10,135)"/>
<path d="M0 0 C0.99 0 1.98 0 3 0 C3 0.66 3 1.32 3 2 C3.99 2.66 4.98 3.32 6 4 C3.36 4 0.72 4 -2 4 C-1.34 2.68 -0.68 1.36 0 0 Z " fill="#8D8070" transform="translate(40,120)"/>
<path d="M0 0 C1.485 0.99 1.485 0.99 3 2 C3 2.99 3 3.98 3 5 C2.01 5 1.02 5 0 5 C-0.33 5.99 -0.66 6.98 -1 8 C-1.125 2.25 -1.125 2.25 0 0 Z " fill="#6C0A0C" transform="translate(9,62)"/>
<path d="M0 0 C6.875 3.625 6.875 3.625 8 7 C7.01 6.67 6.02 6.34 5 6 C5 5.34 5 4.68 5 4 C4.360625 3.896875 3.72125 3.79375 3.0625 3.6875 C2.381875 3.460625 1.70125 3.23375 1 3 C0.67 2.01 0.34 1.02 0 0 Z " fill="#DBDBDB" transform="translate(13,48)"/>
<path d="M0 0 C0.33 0 0.66 0 1 0 C0.67 2.97 0.34 5.94 0 9 C-0.66 9 -1.32 9 -2 9 C-1.125 2.25 -1.125 2.25 0 0 Z " fill="#625446" transform="translate(82,141)"/>
<path d="M0 0 C0.33 0 0.66 0 1 0 C1.05399736 1.45792884 1.09279177 2.91642712 1.125 4.375 C1.14820313 5.18710938 1.17140625 5.99921875 1.1953125 6.8359375 C1 9 1 9 -1 11 C-1.66 11 -2.32 11 -3 11 C-2.690625 10.484375 -2.38125 9.96875 -2.0625 9.4375 C-0.70940713 6.33334577 -0.38640576 3.34884993 0 0 Z " fill="#7A483A" transform="translate(61,125)"/>
<path d="M0 0 C0 0.66 0 1.32 0 2 C-2.60582371 2.93065133 -3.64198224 3.14917407 -6.25 2.0625 C-6.8275 1.711875 -7.405 1.36125 -8 1 C-2.25 -1.125 -2.25 -1.125 0 0 Z " fill="#694E41" transform="translate(98,122)"/>
<path d="M0 0 C5.75 1.75 5.75 1.75 8 4 C6.02 4 4.04 4 2 4 C1.34 2.68 0.68 1.36 0 0 Z " fill="#E95251" transform="translate(105,33)"/>
<path d="M0 0 C-6.625 3.125 -6.625 3.125 -10 2 C-6.86358686 -1.13641314 -4.14410883 -1.38136961 0 0 Z " fill="#E0A9A8" transform="translate(49,30)"/>
</svg>
